<?xml version="1.0" encoding="UTF-8"?>
<svg xmlns="http://www.w3.org/2000/svg" xmlns:xlink="http://www.w3.org/1999/xlink" width="128px" height="128px" viewBox="0 0 128 128" version="1.1">
<g id="surface1">
<path style=" stroke:none;fill-rule:nonzero;fill:rgb(0%,0%,0%);fill-opacity:1;" d="M 88.632812 0 C 88.929688 0 89.226562 0 89.542969 0 C 90.273438 9.027344 86.828125 15.773438 82.640625 20.65625 C 78.53125 25.507812 72.90625 30.210938 63.804688 29.496094 C 63.199219 20.601562 66.648438 14.355469 70.832031 9.480469 C 74.710938 4.941406 81.820312 0.898438 88.632812 0 Z M 88.632812 0 "/>
<path style=" stroke:none;fill-rule:nonzero;fill:rgb(0%,0%,0%);fill-opacity:1;" d="M 116.179688 93.957031 C 116.179688 94.046875 116.179688 94.125 116.179688 94.207031 C 113.621094 101.953125 109.972656 108.589844 105.523438 114.753906 C 101.460938 120.34375 96.480469 127.871094 87.585938 127.871094 C 79.902344 127.871094 74.800781 122.929688 66.925781 122.796875 C 58.597656 122.660156 54.015625 126.925781 46.398438 128 C 45.527344 128 44.65625 128 43.800781 128 C 38.210938 127.191406 33.695312 122.761719 30.40625 118.769531 C 20.710938 106.980469 13.21875 91.746094 11.824219 72.253906 C 11.824219 70.34375 11.824219 68.4375 11.824219 66.527344 C 12.417969 52.574219 19.195312 41.234375 28.203125 35.738281 C 32.960938 32.8125 39.496094 30.324219 46.777344 31.4375 C 49.894531 31.917969 53.082031 32.988281 55.875 34.042969 C 58.523438 35.0625 61.832031 36.867188 64.96875 36.769531 C 67.09375 36.707031 69.207031 35.601562 71.347656 34.820312 C 77.621094 32.554688 83.769531 29.957031 91.875 31.179688 C 101.617188 32.652344 108.53125 36.980469 112.800781 43.65625 C 104.5625 48.898438 98.046875 56.800781 99.160156 70.296875 C 100.148438 82.558594 107.277344 89.730469 116.179688 93.957031 Z M 116.179688 93.957031 "/>
</g>
</svg>
